REM DIRINDEX 1\2,1\3
REM DIRNAME cjc143,folder01,folder02
TITLE ""
FILE "2000 phrasesTrack39.mp3" MP3
  TRACK 01 AUDIO
    TITLE "2:cjc143_1478"
    INDEX 01 00:00:00
  TRACK 02 AUDIO
    TITLE "0:"
    INDEX 01 00:00:68
  TRACK 03 AUDIO
    TITLE "2:cjc143_1479"
    INDEX 01 00:01:40
  TRACK 04 AUDIO
    TITLE "0:"
    INDEX 01 00:03:12
  TRACK 05 AUDIO
    TITLE "2:cjc143_1480"
    INDEX 01 00:03:55
  TRACK 06 AUDIO
    TITLE "0:"
    INDEX 01 00:05:46
  TRACK 07 AUDIO
    TITLE "2:cjc143_1481"
    INDEX 01 00:06:18
  TRACK 08 AUDIO
    TITLE "0:"
    INDEX 01 00:08:01
  TRACK 09 AUDIO
    TITLE "2:cjc143_1482"
    INDEX 01 00:08:60
  TRACK 10 AUDIO
    TITLE "0:"
    INDEX 01 00:10:29
  TRACK 11 AUDIO
    TITLE "2:cjc143_1483"
    INDEX 01 00:10:74
  TRACK 12 AUDIO
    TITLE "0:"
    INDEX 01 00:12:46
  TRACK 13 AUDIO
    TITLE "2:cjc143_1484"
    INDEX 01 00:13:16
  TRACK 14 AUDIO
    TITLE "0:"
    INDEX 01 00:15:42
  TRACK 15 AUDIO
    TITLE "2:cjc143_1485"
    INDEX 01 00:16:12
  TRACK 16 AUDIO
    TITLE "0:"
    INDEX 01 00:17:31
  TRACK 17 AUDIO
    TITLE "2:cjc143_1486"
    INDEX 01 00:18:07
  TRACK 18 AUDIO
    TITLE "0:"
    INDEX 01 00:20:12
  TRACK 19 AUDIO
    TITLE "2:cjc143_1487"
    INDEX 01 00:20:59
  TRACK 20 AUDIO
    TITLE "0:"
    INDEX 01 00:22:44
  TRACK 21 AUDIO
    TITLE "2:cjc143_1488"
    INDEX 01 00:23:14
  TRACK 22 AUDIO
    TITLE "0:"
    INDEX 01 00:24:53
  TRACK 23 AUDIO
    TITLE "2:cjc143_1489"
    INDEX 01 00:25:29
  TRACK 24 AUDIO
    TITLE "0:"
    INDEX 01 00:26:60
  TRACK 25 AUDIO
    TITLE "2:cjc143_1490"
    INDEX 01 00:27:34
  TRACK 26 AUDIO
    TITLE "0:"
    INDEX 01 00:28:57
  TRACK 27 AUDIO
    TITLE "2:cjc143_1491"
    INDEX 01 00:29:25
  TRACK 28 AUDIO
    TITLE "0:"
    INDEX 01 00:30:36
  TRACK 29 AUDIO
    TITLE "2:cjc143_1492"
    INDEX 01 00:31:06
  TRACK 30 AUDIO
    TITLE "0:"
    INDEX 01 00:32:27
  TRACK 31 AUDIO
    TITLE "2:cjc143_1493"
    INDEX 01 00:32:74
  TRACK 32 AUDIO
    TITLE "0:"
    INDEX 01 00:34:47
  TRACK 33 AUDIO
    TITLE "2:cjc143_1494"
    INDEX 01 00:35:25
  TRACK 34 AUDIO
    TITLE "0:"
    INDEX 01 00:36:56
  TRACK 35 AUDIO
    TITLE "2:cjc143_1495"
    INDEX 01 00:37:24
  TRACK 36 AUDIO
    TITLE "0:"
    INDEX 01 00:38:43
  TRACK 37 AUDIO
    TITLE "2:cjc143_1496"
    INDEX 01 00:39:19
  TRACK 38 AUDIO
    TITLE "0:"
    INDEX 01 00:40:58
  TRACK 39 AUDIO
    TITLE "2:cjc143_1497"
    INDEX 01 00:41:38
  TRACK 40 AUDIO
    TITLE "0:"
    INDEX 01 00:42:51
  TRACK 41 AUDIO
    TITLE "2:cjc143_1498"
    INDEX 01 00:43:25
  TRACK 42 AUDIO
    TITLE "0:"
    INDEX 01 00:45:08
  TRACK 43 AUDIO
    TITLE "2:cjc143_1499"
    INDEX 01 00:45:53
  TRACK 44 AUDIO
    TITLE "0:"
    INDEX 01 00:47:23
  TRACK 45 AUDIO
    TITLE "2:cjc143_1500"
    INDEX 01 00:47:66
  TRACK 46 AUDIO
    TITLE "0:"
    INDEX 01 00:49:16
  TRACK 47 AUDIO
    TITLE "2:cjc143_1501"
    INDEX 01 00:49:65
  TRACK 48 AUDIO
    TITLE "0:"
    INDEX 01 00:51:36
  TRACK 49 AUDIO
    TITLE "2:cjc143_1502"
    INDEX 01 00:52:06
  TRACK 50 AUDIO
    TITLE "0:"
    INDEX 01 00:53:68
  TRACK 51 AUDIO
    TITLE "2:cjc143_1503"
    INDEX 01 00:54:38
  TRACK 52 AUDIO
    TITLE "0:"
    INDEX 01 00:57:29
  TRACK 53 AUDIO
    TITLE "2:cjc143_1504"
    INDEX 01 00:57:72
  TRACK 54 AUDIO
    TITLE "0:"
    INDEX 01 00:59:73
  TRACK 55 AUDIO
    TITLE "2:cjc143_1505"
    INDEX 01 01:00:45
  TRACK 56 AUDIO
    TITLE "0:"
    INDEX 01 01:03:00
  TRACK 57 AUDIO
    TITLE "2:cjc143_1506"
    INDEX 01 01:03:47
  TRACK 58 AUDIO
    TITLE "0:"
    INDEX 01 01:05:30
  TRACK 59 AUDIO
    TITLE "2:cjc143_1507"
    INDEX 01 01:06:02
  TRACK 60 AUDIO
    TITLE "0:"
    INDEX 01 01:07:25
  TRACK 61 AUDIO
    TITLE "2:cjc143_1508"
    INDEX 01 01:07:74
  TRACK 62 AUDIO
    TITLE "0:"
    INDEX 01 01:09:42
  TRACK 63 AUDIO
    TITLE "2:cjc143_1509"
    INDEX 01 01:10:10
  TRACK 64 AUDIO
    TITLE "0:"
    INDEX 01 01:11:62
  TRACK 65 AUDIO
    TITLE "2:cjc143_1510"
    INDEX 01 01:12:34
  TRACK 66 AUDIO
    TITLE "0:"
    INDEX 01 01:13:61
  TRACK 67 AUDIO
    TITLE "2:cjc143_1511"
    INDEX 01 01:14:37
  TRACK 68 AUDIO
    TITLE "0:"
    INDEX 01 01:16:05
  TRACK 69 AUDIO
    TITLE "2:cjc143_1512"
    INDEX 01 01:16:52
  TRACK 70 AUDIO
    TITLE "0:"
    INDEX 01 01:17:71
  TRACK 71 AUDIO
    TITLE "2:cjc143_1513"
    INDEX 01 01:18:41
  TRACK 72 AUDIO
    TITLE "0:"
    INDEX 01 01:19:64
  TRACK 73 AUDIO
    TITLE "2:cjc143_1514"
    INDEX 01 01:20:32
  TRACK 74 AUDIO
    TITLE "0:"
    INDEX 01 01:22:50
  TRACK 75 AUDIO
    TITLE "2:cjc143_1515"
    INDEX 01 01:23:28
  TRACK 76 AUDIO
    TITLE "0:"
    INDEX 01 01:25:45
  TRACK 77 AUDIO
    TITLE "2:cjc143_1516"
    INDEX 01 01:26:13
  TRACK 78 AUDIO
    TITLE "0:"
    INDEX 01 01:28:29
  TRACK 79 AUDIO
    TITLE "2:cjc143_1517"
    INDEX 01 01:29:07
  TRACK 80 AUDIO
    TITLE "0:"
    INDEX 01 01:31:47
  TRACK 81 AUDIO
    TITLE "2:cjc143_1518"
    INDEX 01 01:32:19
  TRACK 82 AUDIO
    TITLE "0:"
    INDEX 01 01:34:59
  TRACK 83 AUDIO
    TITLE "2:cjc143_1519"
    INDEX 01 01:35:31
  TRACK 84 AUDIO
    TITLE "0:"
    INDEX 01 01:38:08
  TRACK 85 AUDIO
    TITLE "2:cjc143_1520"
    INDEX 01 01:38:59
  TRACK 86 AUDIO
    TITLE "0:"
    INDEX 01 01:40:07
  TRACK 87 AUDIO
    TITLE "2:cjc143_1521"
    INDEX 01 01:40:56
  TRACK 88 AUDIO
    TITLE "0:"
    INDEX 01 01:42:02
  TRACK 89 AUDIO
    TITLE "2:cjc143_1522"
    INDEX 01 01:42:49
  TRACK 90 AUDIO
    TITLE "0:"
    INDEX 01 01:44:11
  TRACK 91 AUDIO
    TITLE "2:cjc143_1523"
    INDEX 01 01:44:58
  TRACK 92 AUDIO
    TITLE "0:"
    INDEX 01 01:46:14
  TRACK 93 AUDIO
    TITLE "2:cjc143_1524"
    INDEX 01 01:46:59
  TRACK 94 AUDIO
    TITLE "0:"
    INDEX 01 01:48:11
  TRACK 95 AUDIO
    TITLE "2:cjc143_1525"
    INDEX 01 01:48:61
  TRACK 96 AUDIO
    TITLE "0:"
    INDEX 01 01:50:07
  TRACK 97 AUDIO
    TITLE "2:cjc143_1526"
    INDEX 01 01:50:53
  TRACK 98 AUDIO
    TITLE "0:"
    INDEX 01 01:52:36
  TRACK 99 AUDIO
    TITLE "2:cjc143_1527"
    INDEX 01 01:53:04
  TRACK 100 AUDIO
    TITLE "0:"
    INDEX 01 01:54:21
  TRACK 101 AUDIO
    TITLE "2:cjc143_1528"
    INDEX 01 01:55:01
  TRACK 102 AUDIO
    TITLE "0:"
    INDEX 01 01:56:26
  TRACK 103 AUDIO
    TITLE "2:cjc143_1529"
    INDEX 01 01:56:73
  TRACK 104 AUDIO
    TITLE "0:"
    INDEX 01 01:58:34
  TRACK 105 AUDIO
    TITLE "2:cjc143_1530"
    INDEX 01 01:59:03
  TRACK 106 AUDIO
    TITLE "0:"
    INDEX 01 02:00:57
  TRACK 107 AUDIO
    TITLE "2:cjc143_1531"
    INDEX 01 02:01:27
  TRACK 108 AUDIO
    TITLE "0:"
    INDEX 01 02:02:38
  TRACK 109 AUDIO
    TITLE "2:cjc143_1532"
    INDEX 01 02:03:14
  TRACK 110 AUDIO
    TITLE "0:"
    INDEX 01 02:04:21
  TRACK 111 AUDIO
    TITLE "2:cjc143_1533"
    INDEX 01 02:04:70
  TRACK 112 AUDIO
    TITLE "0:"
    INDEX 01 02:06:26
  TRACK 113 AUDIO
    TITLE "2:cjc143_1534"
    INDEX 01 02:06:71
  TRACK 114 AUDIO
    TITLE "0:"
    INDEX 01 02:08:41
  TRACK 115 AUDIO
    TITLE "2:cjc143_1535"
    INDEX 01 02:09:11
  TRACK 116 AUDIO
    TITLE "0:"
    INDEX 01 02:10:59
  TRACK 117 AUDIO
    TITLE "2:cjc143_1536"
    INDEX 01 02:11:31
  TRACK 118 AUDIO
    TITLE "0:"
    INDEX 01 02:12:56
  TRACK 119 AUDIO
    TITLE "2:cjc143_1537"
    INDEX 01 02:13:28
  TRACK 120 AUDIO
    TITLE "0:"
    INDEX 01 02:14:37
  TRACK 121 AUDIO
    TITLE "2:cjc143_1538"
    INDEX 01 02:15:07
  TRACK 122 AUDIO
    TITLE "0:"
    INDEX 01 02:16:58
  TRACK 123 AUDIO
    TITLE "2:cjc143_1539"
    INDEX 01 02:17:30
  TRACK 124 AUDIO
    TITLE "0:"
    INDEX 01 02:18:55
  TRACK 125 AUDIO
    TITLE "2:cjc143_1540"
    INDEX 01 02:19:23
  TRACK 126 AUDIO
    TITLE "0:"
    INDEX 01 02:20:32
